<?xml version="1.0" standalone="no"?>
<!DOCTYPE svg PUBLIC "-//W3C//DTD SVG 20010904//EN"
 "http://www.w3.org/TR/2001/REC-SVG-20010904/DTD/svg10.dtd">
<svg version="1.0" xmlns="http://www.w3.org/2000/svg"
 width="1678.000000pt" height="138.000000pt" viewBox="0 0 1678.000000 138.000000"
 preserveAspectRatio="xMidYMid meet">

<g transform="translate(0.000000,138.000000) scale(0.100000,-0.100000)"
fill="#41281e" stroke="none">
<path d="M536 1279 c-104 -11 -174 -44 -200 -96 -25 -47 -56 -83 -72 -83 -7 0
-34 23 -60 50 -35 37 -55 50 -76 50 -34 0 -37 -22 -6 -43 13 -8 57 -48 99 -88
94 -90 100 -112 63 -193 -34 -75 -30 -154 11 -236 25 -50 58 -90 75 -90 7 0
40 164 40 203 0 14 -18 60 -41 102 -22 42 -39 80 -37 85 2 5 21 -6 43 -25 22
-19 44 -35 50 -35 5 0 26 -14 45 -30 19 -16 37 -30 40 -30 3 0 14 -14 24 -31
15 -26 17 -41 11 -88 -20 -136 -8 -201 49 -276 49 -64 57 -63 72 12 27 125 16
174 -60 273 -19 25 -33 46 -31 48 2 2 28 -9 57 -26 127 -72 184 -104 200 -109
24 -7 34 -37 60 -174 8 -46 14 -56 27 -52 15 4 17 15 13 89 -3 46 -2 84 2 84
3 0 52 -15 108 -33 57 -19 123 -40 148 -47 75 -23 118 -55 124 -92 15 -97 19
-114 31 -138 24 -46 95 -109 162 -144 l33 -16 -6 32 c-8 50 -25 120 -37 153
-14 42 -55 95 -73 95 -7 0 -14 5 -14 10 0 6 -7 10 -15 10 -9 0 -28 11 -43 25
-15 14 -25 25 -22 25 3 0 64 -7 135 -15 78 -10 187 -15 273 -13 87 2 145 -1
150 -7 18 -25 93 -75 113 -75 19 0 16 6 -24 44 -52 48 -55 56 -29 56 16 1 145
31 265 64 32 9 84 16 116 16 72 0 106 -23 122 -83 22 -83 72 -143 153 -181
102 -49 100 -50 64 54 -46 133 -112 200 -196 200 -29 0 -71 24 -61 35 4 3 31
10 60 16 54 10 101 20 174 37 22 6 65 15 95 22 30 7 71 16 90 20 105 24 96 25
110 -12 24 -58 33 -68 53 -53 16 11 16 15 1 50 -8 20 -13 39 -11 41 7 8 158
24 274 31 127 7 196 -6 218 -41 7 -12 18 -46 25 -76 23 -100 54 -139 151 -189
60 -31 89 -38 89 -23 0 21 -53 169 -70 197 -19 30 -91 75 -122 75 -16 1 -48
24 -48 35 0 4 57 5 128 0 70 -4 148 -9 173 -10 39 -3 57 -11 103 -49 65 -52
88 -60 172 -60 54 0 124 18 124 31 0 12 -75 73 -117 94 -48 25 -45 24 -243 20
-62 -1 -205 20 -217 33 -4 3 27 6 68 6 108 1 269 43 317 83 33 27 -212 52
-260 26 -12 -6 -36 -26 -55 -45 -58 -58 -71 -61 -250 -56 -90 2 -163 8 -163
12 0 11 39 33 85 49 48 16 100 62 125 112 21 40 54 159 46 166 -9 9 -132 -59
-159 -88 -10 -10 -24 -19 -31 -19 -18 0 -45 -64 -56 -134 -14 -89 -31 -102
-153 -115 -119 -14 -226 -29 -282 -41 -22 -5 -67 -14 -100 -20 -101 -20 -171
-35 -263 -60 -24 -6 -46 -10 -48 -7 -6 6 103 77 118 77 8 0 7 5 -4 16 -15 15
-20 14 -65 -10 -26 -15 -75 -47 -108 -72 -33 -24 -71 -47 -85 -50 -14 -2 -63
-13 -110 -24 -47 -10 -103 -22 -125 -25 l-39 -7 44 49 c98 108 121 155 128
261 l5 73 -33 -18 c-48 -27 -117 -101 -146 -159 -26 -53 -30 -91 -19 -155 8
-42 -1 -52 -70 -68 -56 -14 -354 -27 -380 -17 -17 6 -17 7 0 26 10 11 24 20
32 20 30 0 101 53 143 106 30 39 63 124 58 153 -3 20 -7 19 -87 -20 -98 -48
-124 -71 -141 -125 -7 -21 -16 -49 -21 -62 -5 -13 -9 -34 -9 -47 0 -41 -31
-49 -129 -36 -89 12 -105 16 -233 53 -73 21 -92 38 -45 38 12 1 32 6 45 13 19
11 20 15 10 30 -12 15 -18 14 -86 -9 -83 -28 -62 -32 -237 51 -103 48 -130 71
-93 79 12 3 57 7 98 9 41 2 86 10 100 18 49 27 150 139 150 165 0 7 -54 2
-155 -14 -83 -13 -133 -49 -169 -119 -24 -47 -62 -70 -88 -54 -12 7 -37 22
-57 33 -54 30 -130 90 -147 115 -8 13 -22 23 -32 23 -9 0 -38 19 -63 43 -26
23 -61 54 -78 70 -51 45 -35 65 50 64 87 -2 163 42 227 132 32 43 39 62 25 60
-5 -1 -44 -5 -87 -10z"/>
<path d="M7840 1273 c0 -14 83 -114 108 -130 15 -10 29 -20 32 -23 19 -19 70
-34 123 -36 80 -2 77 -1 77 -23 0 -10 -19 -34 -42 -54 -24 -19 -58 -49 -77
-67 -33 -32 -34 -32 -75 -19 -22 7 -46 16 -51 20 -6 4 -21 2 -34 -5 -23 -13
-23 -13 23 -32 25 -10 46 -21 46 -24 0 -11 -17 -27 -50 -50 -19 -13 -37 -27
-40 -30 -3 -3 -15 -11 -27 -17 -13 -7 -33 -19 -45 -25 -13 -7 -26 -17 -29 -21
-4 -5 -15 -7 -25 -5 -16 3 -33 22 -99 111 -11 15 -38 35 -60 45 -42 19 -211
50 -221 40 -9 -10 32 -81 63 -110 57 -53 102 -71 200 -77 50 -3 94 -9 97 -12
12 -11 -86 -67 -217 -123 l-57 -25 -63 20 c-145 48 -182 56 -227 50 l-45 -6
120 -39 c66 -22 123 -42 128 -46 6 -5 -60 -28 -178 -60 -16 -5 -69 -14 -116
-20 -105 -14 -125 -7 -135 48 -11 62 -43 137 -67 159 -25 23 -115 72 -164 89
l-32 11 6 -31 c10 -54 54 -143 86 -174 18 -17 61 -46 96 -64 35 -19 63 -38 62
-43 -1 -6 -68 -9 -171 -9 -165 2 -267 15 -283 38 -4 6 -4 39 -1 74 6 54 3 69
-19 115 -35 70 -137 177 -170 177 -19 0 -9 -122 16 -185 14 -37 18 -42 90
-120 52 -56 72 -85 48 -70 -5 3 -33 10 -63 16 -29 6 -69 15 -88 19 -19 4 -59
13 -88 19 -46 9 -97 38 -140 79 -7 6 -17 12 -22 12 -5 0 -15 6 -22 13 -27 25
-97 57 -124 57 l-29 0 25 -20 c14 -11 37 -25 53 -32 15 -7 27 -16 27 -19 0 -4
14 -12 30 -19 32 -13 42 -35 13 -26 -21 6 -112 27 -285 66 -24 5 -59 12 -78
15 -19 3 -57 10 -85 15 -27 5 -93 14 -145 20 -211 22 -220 27 -239 141 -12 73
-34 119 -57 119 -7 0 -19 8 -26 18 -7 10 -40 33 -73 51 -33 18 -66 38 -74 44
-25 21 -5 -86 29 -159 35 -71 85 -116 151 -134 21 -6 46 -18 55 -28 17 -16 9
-17 -152 -23 -183 -6 -184 -6 -247 51 -58 53 -76 59 -154 60 -71 0 -173 -17
-173 -30 0 -6 18 -16 70 -38 82 -34 165 -51 249 -52 43 0 71 -4 65 -9 -14 -13
-151 -32 -219 -30 -197 5 -188 6 -249 -31 -31 -19 -67 -45 -78 -58 -21 -22
-21 -22 -3 -36 25 -18 105 -29 153 -20 44 7 112 45 148 81 21 21 37 27 78 28
28 1 110 5 181 9 l130 8 -25 -20 c-13 -11 -42 -26 -65 -33 -71 -22 -97 -54
-134 -168 -24 -72 -26 -101 -10 -101 16 0 124 56 149 77 33 28 62 81 71 130
23 121 58 140 242 130 138 -8 266 -22 274 -31 4 -4 1 -23 -6 -42 -11 -31 -11
-38 3 -52 18 -19 16 -20 45 42 19 41 25 47 44 42 12 -4 45 -11 72 -17 28 -6
66 -15 85 -19 19 -4 60 -13 90 -20 30 -7 73 -16 95 -21 22 -5 66 -14 98 -20
84 -16 77 -32 -20 -50 -31 -6 -70 -20 -85 -31 -43 -30 -97 -133 -121 -230 -7
-25 -6 -26 20 -18 61 18 104 42 142 78 38 36 81 115 81 149 0 9 12 26 28 39
22 20 38 24 91 24 36 0 78 -4 95 -9 87 -27 178 -51 240 -62 l68 -13 -56 -53
c-31 -29 -56 -57 -56 -62 0 -25 21 -16 71 29 81 75 95 79 233 73 104 -5 173
-1 365 23 38 5 43 4 33 -8 -6 -8 -31 -25 -54 -37 -63 -32 -73 -42 -97 -88 -22
-44 -51 -151 -51 -190 0 -22 1 -22 53 8 102 59 167 155 167 250 0 52 39 82
148 115 48 14 120 37 160 50 40 13 75 24 79 24 5 0 0 -73 -13 -167 -6 -38 -4
-43 13 -43 15 0 21 15 36 88 28 135 37 161 66 175 14 8 44 24 66 36 22 13 58
33 80 44 22 12 42 24 45 27 14 14 53 31 58 25 4 -3 2 -9 -4 -13 -5 -4 -21 -23
-34 -42 -13 -19 -27 -37 -30 -40 -10 -10 -28 -56 -34 -87 -5 -28 0 -66 22
-182 l7 -34 33 37 c55 63 82 127 82 197 0 34 -5 79 -11 99 -21 70 5 112 121
190 36 24 71 50 78 57 7 7 15 13 17 13 9 0 -12 -48 -42 -98 -36 -61 -42 -114
-22 -202 6 -25 13 -57 16 -73 3 -15 9 -27 13 -27 13 0 58 57 74 93 40 91 43
159 10 222 -8 16 -17 47 -20 70 -5 34 -1 46 23 77 16 20 45 49 63 65 53 44
120 109 120 116 0 4 -12 7 -27 7 -18 0 -43 -16 -80 -51 -31 -29 -60 -49 -71
-47 -9 2 -28 23 -41 48 -47 85 -94 114 -206 126 -27 3 -65 7 -82 9 -18 2 -33
1 -33 -2z"/>
<path d="M8915 1260 c-139 -14 -186 -40 -236 -130 -13 -25 -32 -46 -41 -48
-11 -2 -40 18 -71 47 -37 35 -62 51 -80 51 -15 0 -27 -3 -27 -7 0 -7 67 -72
120 -116 18 -16 47 -45 63 -65 24 -31 28 -43 23 -77 -3 -23 -12 -54 -20 -70
-33 -63 -30 -131 10 -222 16 -36 61 -93 74 -93 4 0 10 12 13 27 3 16 10 48 16
73 20 88 14 141 -22 202 -30 50 -51 98 -42 98 2 0 10 -6 17 -13 7 -7 42 -33
78 -57 116 -78 142 -120 121 -190 -6 -20 -11 -65 -11 -99 0 -70 27 -134 82
-197 l33 -37 7 34 c22 116 27 154 22 182 -6 31 -24 77 -34 87 -3 3 -17 21 -30
40 -13 19 -29 38 -34 42 -6 4 -8 10 -4 13 5 6 44 -11 58 -25 3 -3 23 -15 45
-27 22 -11 58 -31 80 -44 22 -12 52 -28 66 -36 29 -14 38 -40 66 -175 15 -73
21 -88 36 -88 17 0 19 5 13 43 -13 94 -18 167 -13 167 4 0 39 -11 79 -24 40
-13 112 -36 160 -50 109 -33 148 -63 148 -115 0 -95 65 -191 168 -250 51 -30
52 -30 52 -8 0 39 -29 146 -51 190 -24 46 -34 56 -97 88 -23 12 -48 29 -54 37
-10 12 -5 13 33 8 192 -24 261 -28 365 -23 138 6 152 2 233 -73 50 -45 71 -54
71 -29 0 5 -25 33 -56 62 l-56 53 68 13 c62 11 153 35 240 62 17 5 59 9 95 9
53 0 69 -4 92 -24 15 -13 27 -30 27 -39 0 -34 43 -113 81 -149 38 -36 81 -60
142 -78 26 -8 27 -7 20 18 -24 97 -78 200 -121 230 -15 11 -54 25 -85 31 -97
18 -104 34 -19 50 31 6 75 15 97 20 22 5 65 14 95 21 30 7 71 16 90 20 19 4
58 13 85 19 28 6 60 13 72 17 19 5 25 -1 44 -42 29 -62 27 -61 45 -42 14 14
14 21 3 52 -7 19 -10 38 -6 42 8 9 136 23 274 31 184 10 219 -9 242 -130 9
-49 38 -102 71 -130 25 -21 133 -77 149 -77 16 0 14 29 -10 101 -37 114 -63
146 -134 168 -23 7 -52 22 -65 33 l-25 20 130 -8 c72 -4 153 -8 181 -9 41 -1
57 -7 78 -28 36 -36 104 -74 148 -81 48 -9 128 2 153 20 18 14 18 14 -3 36
-11 13 -47 39 -78 58 -61 37 -52 36 -249 31 -68 -2 -205 17 -219 30 -6 5 22 9
65 9 84 1 167 18 249 52 52 22 70 32 70 38 0 13 -102 30 -173 30 -78 -1 -96
-7 -154 -60 -63 -57 -64 -57 -247 -51 -161 6 -169 7 -152 23 9 10 34 22 55 28
66 18 116 63 151 134 34 73 54 180 29 159 -8 -6 -41 -26 -74 -44 -33 -18 -66
-41 -73 -51 -7 -10 -19 -18 -26 -18 -23 0 -45 -46 -57 -119 -19 -114 -28 -119
-239 -141 -52 -6 -117 -15 -145 -20 -27 -5 -66 -12 -85 -15 -19 -3 -54 -10
-77 -15 -174 -39 -265 -60 -285 -66 -30 -9 -20 13 12 26 17 7 30 15 30 19 0 3
12 12 28 19 15 7 38 21 52 32 l25 20 -29 0 c-27 0 -97 -32 -124 -57 -7 -7 -17
-13 -22 -13 -5 0 -15 -6 -22 -12 -43 -41 -94 -70 -140 -79 -29 -6 -69 -15 -88
-19 -19 -4 -59 -13 -88 -19 -30 -6 -58 -13 -63 -16 -24 -15 -4 14 49 70 71 78
75 83 89 120 25 63 35 185 16 185 -33 0 -135 -107 -170 -177 -22 -46 -25 -61
-19 -115 3 -35 3 -68 -1 -74 -16 -23 -118 -36 -283 -38 -103 0 -170 3 -171 9
-1 5 27 24 62 43 35 18 78 47 96 64 32 31 76 120 86 174 l6 31 -32 -11 c-49
-17 -139 -66 -164 -89 -24 -22 -56 -97 -67 -159 -10 -55 -30 -62 -135 -48 -47
6 -99 15 -116 20 -118 32 -184 55 -178 60 5 4 62 24 128 46 l120 39 -45 6
c-45 6 -82 -2 -227 -50 l-63 -20 -57 25 c-131 56 -229 112 -217 123 3 3 47 9
97 12 98 6 143 24 200 77 31 29 72 100 63 110 -10 10 -179 -21 -221 -40 -22
-10 -49 -30 -60 -45 -66 -89 -83 -108 -99 -111 -10 -2 -21 0 -25 5 -5 7 -21
17 -76 47 -11 6 -22 13 -25 16 -3 3 -21 17 -40 30 -33 23 -50 39 -50 50 0 3
21 14 46 24 46 19 46 19 23 32 -13 7 -28 9 -34 5 -5 -4 -29 -13 -51 -20 -41
-13 -42 -13 -75 19 -19 18 -53 48 -76 67 -24 20 -43 44 -43 54 0 22 -3 21 77
23 53 2 104 17 123 36 3 3 17 13 32 23 15 9 46 41 68 70 39 53 47 68 33 66 -5
-1 -39 -5 -78 -9z"/>
<path d="M3683 1240 c-3 -11 -9 -20 -13 -20 -5 0 -11 -8 -15 -19 -3 -10 -14
-28 -25 -41 -10 -12 -26 -45 -35 -75 -18 -56 -15 -83 22 -164 10 -22 14 -53
11 -92 l-4 -58 35 31 c20 17 56 50 81 73 55 51 73 61 130 70 25 4 59 14 75 22
58 30 134 128 158 204 6 18 -17 17 -88 -4 -82 -23 -195 -101 -195 -134 0 -7
-4 -13 -9 -13 -5 0 -12 -16 -15 -35 -5 -27 -20 -44 -66 -80 -32 -25 -61 -45
-64 -45 -16 0 4 63 25 80 4 3 17 25 29 50 30 57 33 186 6 238 -19 36 -35 41
-43 12z"/>
<path d="M4753 1229 c-28 -52 -26 -213 3 -254 27 -38 64 -111 64 -125 0 -10
-55 26 -88 57 -7 7 -19 16 -26 20 -6 5 -20 28 -29 53 -19 49 -55 94 -102 127
-33 22 -130 58 -182 67 l-33 5 34 -67 c55 -110 120 -163 217 -178 46 -7 84
-29 135 -79 38 -37 93 -85 97 -85 2 0 3 28 4 63 0 43 6 76 21 107 39 81 29
130 -51 254 l-45 69 -19 -34z"/>
<path d="M16180 1251 c0 -16 77 -107 109 -130 52 -37 103 -53 164 -52 71 1 86
-18 41 -54 -16 -12 -51 -43 -79 -69 -27 -25 -54 -46 -60 -46 -5 0 -29 7 -52
16 -31 12 -50 14 -65 7 -21 -9 -21 -10 12 -26 18 -9 39 -17 47 -17 7 0 13 -4
13 -9 0 -11 -92 -82 -141 -109 -20 -11 -45 -26 -57 -33 -26 -16 -64 7 -88 54
-36 70 -86 106 -169 119 -101 16 -155 21 -155 14 0 -26 101 -138 150 -165 14
-8 59 -16 100 -18 41 -2 86 -6 98 -9 37 -8 10 -31 -93 -79 -178 -84 -147 -81
-283 -36 -102 34 -127 39 -168 33 l-49 -7 120 -39 c66 -21 127 -40 135 -43 8
-3 -21 -16 -65 -29 -122 -37 -143 -42 -236 -55 -98 -13 -129 -5 -129 36 0 13
-4 34 -9 47 -5 13 -14 41 -21 62 -17 54 -43 77 -141 125 -80 39 -84 40 -87 20
-5 -29 28 -114 58 -153 42 -53 113 -106 143 -106 8 0 22 -9 32 -20 17 -19 17
-20 0 -26 -26 -10 -324 3 -380 17 -69 16 -78 26 -70 68 11 64 7 102 -19 155
-35 69 -127 166 -159 166 -11 0 -14 -54 -6 -98 11 -61 30 -122 39 -122 4 0 12
-11 18 -25 7 -14 33 -48 58 -75 26 -28 44 -50 42 -50 -6 0 -99 19 -148 30 -19
4 -59 13 -88 19 -46 9 -97 38 -140 79 -7 6 -17 12 -22 12 -5 0 -15 6 -22 13
-27 25 -97 57 -124 57 l-29 0 25 -20 c14 -11 37 -25 53 -32 15 -7 27 -16 27
-19 0 -4 14 -12 30 -19 32 -13 42 -35 13 -26 -21 6 -112 27 -285 66 -24 5 -59
12 -78 15 -19 3 -57 10 -85 15 -27 5 -93 14 -145 20 -211 22 -220 27 -239 141
-12 73 -34 119 -57 119 -7 0 -19 8 -26 19 -7 10 -46 35 -87 55 l-74 38 6 -47
c4 -26 21 -76 38 -111 34 -71 84 -117 150 -134 21 -6 46 -18 55 -28 17 -16 9
-17 -152 -23 -183 -6 -184 -6 -247 51 -58 53 -76 59 -154 60 -71 0 -173 -17
-173 -30 0 -4 12 -12 28 -20 97 -46 194 -69 291 -70 43 0 71 -4 65 -9 -14 -13
-151 -32 -219 -30 -197 5 -188 6 -249 -31 -31 -19 -67 -45 -78 -58 -21 -22
-21 -22 -3 -36 25 -18 105 -29 153 -20 44 7 112 45 148 81 21 21 37 27 78 28
28 1 110 5 181 9 l130 8 -25 -20 c-13 -11 -42 -26 -65 -33 -71 -22 -97 -54
-134 -168 -24 -72 -26 -101 -10 -101 16 0 124 56 149 77 33 28 62 81 71 130
23 121 58 140 242 130 138 -8 266 -22 274 -31 4 -4 1 -23 -6 -42 -11 -31 -11
-38 3 -52 18 -19 16 -20 45 42 19 41 25 47 44 42 12 -4 45 -11 72 -17 28 -6
66 -15 85 -19 19 -4 60 -13 90 -20 30 -7 73 -16 95 -21 22 -5 66 -14 98 -20
84 -16 77 -32 -20 -50 -31 -6 -70 -20 -85 -31 -43 -30 -85 -110 -118 -221 -8
-26 -7 -27 18 -21 48 11 106 42 144 77 36 33 78 111 78 144 0 9 12 26 28 39
22 20 38 24 91 24 36 0 78 -4 95 -9 81 -25 177 -51 231 -62 33 -7 62 -14 64
-15 2 -2 -19 -25 -48 -52 -46 -44 -63 -72 -43 -72 6 0 61 42 127 98 17 15 40
17 160 14 84 -2 192 3 270 13 71 8 132 15 135 15 3 0 -7 -11 -22 -25 -15 -14
-34 -25 -43 -25 -8 0 -15 -4 -15 -10 0 -5 -7 -10 -14 -10 -23 0 -62 -59 -85
-129 -25 -78 -27 -121 -6 -121 28 0 79 32 120 74 49 50 62 73 69 120 3 20 8
52 11 71 7 40 48 71 125 95 25 7 91 28 148 47 56 18 105 33 109 33 8 0 -3
-169 -12 -192 -5 -14 -2 -18 13 -18 16 0 21 11 31 63 7 34 17 72 22 85 5 13 9
32 9 42 0 29 20 68 39 74 15 4 73 36 199 108 29 17 55 28 57 26 2 -2 -12 -23
-31 -48 -76 -99 -87 -148 -60 -273 15 -75 23 -76 72 -12 57 75 69 140 49 276
-6 47 -4 62 11 88 10 17 21 31 24 31 3 0 21 14 40 30 19 16 40 30 45 30 6 0
28 16 50 35 22 19 41 30 43 25 2 -5 -15 -43 -37 -85 -23 -42 -41 -88 -41 -102
0 -39 33 -203 40 -203 17 0 50 40 75 90 41 82 45 161 11 236 -41 89 -33 107
107 229 42 37 77 74 77 81 0 29 -43 12 -101 -42 -33 -30 -66 -54 -72 -51 -12
4 -39 41 -69 95 -9 17 -31 38 -50 48 -63 33 -238 59 -238 35z"/>
<path d="M12020 1178 c-78 -124 -87 -167 -48 -248 15 -31 21 -64 21 -107 1
-35 2 -63 4 -63 4 0 59 48 97 85 51 50 89 72 135 79 97 15 162 68 217 178 l34
67 -33 -5 c-52 -9 -149 -45 -182 -67 -47 -33 -83 -78 -102 -127 -9 -25 -23
-48 -29 -53 -7 -4 -19 -13 -26 -20 -33 -31 -88 -67 -88 -57 0 14 37 87 63 124
37 52 34 216 -5 269 -12 15 -18 9 -58 -55z"/>
<path d="M13089 1208 c-8 -20 -14 -69 -14 -123 0 -76 3 -95 21 -120 27 -38 64
-111 64 -125 0 -10 -51 24 -94 63 -11 9 -23 17 -26 17 -4 0 -12 18 -19 41 -26
87 -153 177 -274 195 l-49 7 32 -62 c51 -102 126 -162 221 -177 46 -7 84 -29
135 -79 38 -37 93 -85 97 -85 2 0 3 28 4 63 0 43 6 76 21 107 26 54 28 97 7
148 -20 46 -95 162 -105 162 -4 0 -14 -15 -21 -32z"/>
</g>
</svg>
