<?xml version="1.0" standalone="no"?>
<!DOCTYPE svg PUBLIC "-//W3C//DTD SVG 20010904//EN"
 "http://www.w3.org/TR/2001/REC-SVG-20010904/DTD/svg10.dtd">
<svg version="1.0" xmlns="http://www.w3.org/2000/svg"
 width="262.000000pt" height="261.000000pt" viewBox="0 0 262.000000 261.000000"
 preserveAspectRatio="xMidYMid meet">

<g transform="translate(0.000000,261.000000) scale(0.100000,-0.100000)"
fill="#fff" stroke="none">
<path d="M1230 2483 c-68 -76 -123 -170 -156 -268 -37 -107 -39 -250 -5 -337
33 -86 164 -219 189 -193 14 14 6 264 -12 384 -27 182 -14 351 34 441 22 42 2
30 -50 -27z"/>
<path d="M1285 2480 c-29 -95 -27 -267 4 -430 17 -87 24 -161 25 -242 0 -65 3
-118 6 -118 4 0 27 20 53 45 55 55 85 115 99 198 14 84 -1 150 -58 258 -83
156 -95 189 -102 274 l-7 80 -20 -65z"/>
<path d="M720 2385 c-33 -120 -4 -263 66 -325 34 -29 109 -59 121 -47 10 11
-22 83 -82 181 -36 60 -61 116 -73 164 l-19 74 -13 -47z"/>
<path d="M750 2417 c0 -39 41 -131 99 -219 34 -51 67 -110 73 -130 14 -46 23
-48 37 -7 32 93 2 170 -99 252 -39 32 -80 72 -90 90 -14 22 -20 26 -20 14z"/>
<path d="M1707 2404 c-60 -31 -128 -98 -158 -156 -33 -62 -33 -159 0 -212 l24
-39 24 46 c12 26 32 86 43 134 23 98 63 193 91 219 13 12 10 0 -12 -39 -19
-35 -38 -98 -53 -170 -13 -63 -32 -129 -41 -147 -9 -17 -14 -34 -11 -37 11
-11 67 20 96 53 46 53 55 98 41 199 -6 47 -10 89 -7 94 5 8 17 82 13 81 -1 -1
-24 -12 -50 -26z"/>
<path d="M2105 2099 c-98 -9 -157 -25 -250 -69 -188 -90 -299 -256 -282 -421
9 -81 14 -91 40 -77 43 23 141 125 227 238 120 158 209 243 305 294 69 37 91
32 25 -6 -77 -44 -203 -174 -289 -300 -71 -105 -172 -219 -220 -251 -35 -24
-21 -30 62 -30 85 1 141 19 207 68 70 51 105 112 152 260 49 157 58 175 115
237 25 26 44 48 42 48 -2 0 -18 4 -34 8 -17 4 -61 5 -100 1z"/>
<path d="M407 2073 c-4 -3 -7 -35 -7 -70 0 -289 195 -567 413 -590 73 -7 167
5 167 22 0 25 -132 155 -249 243 -141 108 -249 221 -290 304 -41 81 -39 109 2
33 42 -79 169 -205 285 -284 118 -80 213 -160 256 -217 l35 -45 7 36 c18 98
-23 223 -98 298 -53 52 -120 85 -247 121 -117 34 -161 56 -221 112 -26 24 -50
41 -53 37z"/>
<path d="M2287 1700 c-56 -14 -90 -35 -125 -74 -30 -34 -61 -110 -50 -121 9
-10 89 26 183 82 89 53 164 82 214 84 24 1 24 2 -9 16 -42 18 -162 26 -213 13z"/>
<path d="M2430 1637 c-30 -13 -84 -42 -119 -66 -35 -24 -91 -56 -125 -71 l-61
-28 37 -16 c80 -34 157 -9 231 75 26 29 47 57 47 62 0 4 21 21 47 37 40 26 43
30 22 30 -13 0 -49 -11 -79 -23z"/>
<path d="M76 1611 c-8 -13 65 -121 107 -158 55 -48 94 -65 162 -71 49 -3 69 0
103 17 23 12 42 26 42 32 0 15 -74 44 -175 68 -50 12 -112 33 -140 46 -55 26
-107 64 -88 65 6 0 15 -5 19 -11 13 -21 112 -58 200 -75 49 -9 111 -25 138
-35 53 -22 61 -20 52 9 -12 35 -47 72 -89 94 -34 17 -56 20 -112 18 -124 -6
-159 -5 -187 3 -15 4 -29 3 -32 -2z"/>
<path d="M1226 1492 c-53 -169 -96 -411 -112 -634 l-6 -88 -539 0 c-472 0
-539 -2 -539 -15 0 -13 149 -15 1280 -15 1131 0 1280 2 1280 15 0 13 -80 15
-664 15 l-664 0 69 69 c54 54 79 89 114 162 47 99 65 159 47 159 -6 0 -26 -28
-44 -62 -20 -39 -66 -96 -117 -148 l-84 -85 -9 34 c-13 48 7 348 33 501 28
161 28 151 2 161 -21 8 -24 3 -47 -69z"/>
<path d="M1913 1379 c-77 -10 -154 -47 -211 -102 -46 -45 -78 -95 -67 -105 14
-14 283 -6 400 12 164 25 298 15 419 -33 49 -19 22 -23 -39 -6 -90 27 -241 23
-430 -10 -129 -22 -179 -26 -258 -22 l-97 5 20 -28 c30 -43 79 -80 140 -109
46 -22 69 -26 145 -26 l91 0 154 78 c138 69 163 78 228 84 40 3 75 9 77 13 7
11 -72 87 -135 130 -77 52 -125 75 -205 98 -86 25 -151 31 -232 21z"/>
<path d="M548 1301 c-25 -10 -85 -39 -132 -65 -112 -61 -155 -76 -232 -77 -35
-1 -62 -5 -59 -9 24 -39 329 -48 475 -15 62 14 123 19 227 20 l141 0 -16 28
c-20 35 -71 76 -132 108 -63 32 -204 38 -272 10z"/>
<path d="M170 1079 c68 -63 183 -131 270 -161 53 -19 87 -23 180 -23 106 0
120 2 177 29 60 27 145 103 171 153 10 18 8 22 -11 27 -35 9 -236 7 -302 -4
-212 -34 -350 -31 -471 10 -31 11 -60 20 -63 20 -3 -1 19 -24 49 -51z"/>
<path d="M70 660 c0 -5 13 -10 28 -10 60 0 62 -10 62 -293 0 -251 0 -257 -22
-277 -12 -11 -32 -20 -45 -20 -13 0 -23 -4 -23 -10 0 -6 42 -10 105 -10 101 0
137 11 76 23 -61 12 -61 14 -61 285 0 142 4 242 9 237 5 -6 59 -127 121 -270
61 -143 115 -264 119 -268 5 -4 54 104 111 240 57 136 112 266 122 288 17 40
18 38 18 -222 0 -288 -1 -293 -61 -293 -16 0 -29 -4 -29 -10 0 -6 62 -10 165
-10 103 0 165 4 165 10 0 6 -13 10 -28 10 -60 0 -62 10 -62 297 0 239 1 261
18 276 10 10 31 17 45 17 15 0 27 5 27 10 0 6 -49 10 -127 10 l-128 0 -84
-205 c-46 -112 -86 -203 -90 -201 -3 2 -44 95 -91 205 l-85 201 -127 0 c-79 0
-128 -4 -128 -10z"/>
<path d="M970 660 c0 -5 11 -10 25 -10 14 0 34 -9 45 -20 19 -19 20 -33 20
-273 0 -281 -3 -297 -61 -297 -16 0 -29 -4 -29 -10 0 -6 58 -10 155 -10 145 0
195 9 125 24 -41 8 -50 36 -50 155 0 76 3 101 15 111 9 7 17 11 18 9 2 -2 37
-47 78 -99 107 -134 114 -147 99 -165 -7 -8 -19 -15 -26 -15 -8 0 -14 -4 -14
-10 0 -6 60 -10 160 -10 88 0 160 3 160 8 -1 4 -20 16 -43 27 -41 20 -92 77
-248 277 l-60 77 133 106 c73 59 145 109 161 112 62 13 20 23 -93 23 -73 0
-120 -4 -120 -10 0 -5 11 -10 24 -10 35 0 52 -25 37 -53 -12 -21 -261 -227
-275 -227 -8 0 -6 208 3 240 4 17 17 28 39 35 63 18 30 25 -123 25 -97 0 -155
-4 -155 -10z"/>
<path d="M1710 660 c0 -5 9 -10 21 -10 11 0 29 -5 40 -10 18 -10 19 -24 19
-280 0 -267 0 -269 -22 -284 -12 -9 -30 -16 -40 -16 -10 0 -18 -4 -18 -10 0
-6 42 -10 105 -10 63 0 105 4 105 10 0 6 -11 10 -24 10 -13 0 -33 8 -45 18
-21 17 -21 22 -19 265 l3 247 119 -275 c66 -151 123 -272 127 -268 4 5 58 130
120 278 62 149 116 274 121 280 4 5 8 -107 8 -248 0 -244 -1 -258 -20 -277
-11 -11 -31 -20 -45 -20 -14 0 -25 -4 -25 -10 0 -6 60 -10 160 -10 100 0 160
4 160 10 0 6 -10 10 -23 10 -13 0 -32 6 -43 14 -18 14 -19 29 -19 281 0 252 1
267 19 281 11 8 30 14 43 14 13 0 23 5 23 10 0 7 -44 10 -126 8 l-126 -3 -80
-195 c-44 -107 -83 -199 -87 -203 -4 -4 -46 84 -93 195 l-86 203 -126 3 c-82
2 -126 -1 -126 -8z"/>
</g>
</svg>
